<svg version="1.0" xmlns="http://www.w3.org/2000/svg" width="133.333" height="133.333" viewBox="0 0 100 100"><path d="M44.5 12c-3.8 3.9-4.1 4-10.8 4-5 0-6.8.3-6.5 1.2.3.9 3.6 1.5 9.4 1.9 4.9.3 6.9.6 4.4.7-4.1.2-5.1.8-10.5 6.2l-5.9 5.9-9 .3c-6 .2-9.1.7-9.4 1.5-.3 1 2.7 1.3 12.5 1.5 7 .1 10.3.3 7.2.5-5.4.4-5.7.5-13.3 8.2l-7.8 7.8 3.4.7c4.2.8 13.7-.8 17.9-2.9 1.9-1 4.6-1.5 6.8-1.2 3.6.4 8.9-1.5 10.3-3.7 1.1-1.6 1-6.4-.2-7.1-1.6-1-1.2-9.8.6-12.3 2.1-3.1 8.7-3.1 10.8 0 1.8 2.6 2.1 10.9.5 12.5-.7.7-.9 2.5-.5 4.5.7 4.1 5.3 6.8 10.2 6.1 1.8-.3 5.2.4 8 1.5 5.6 2.3 14.1 3.6 17.9 2.6l2.7-.7-3.8-3.8c-3.5-3.6-4.3-3.9-9.9-4.1-3.3-.1-.5-.5 6.3-.8 14.3-.6 16.9-2.4 4.1-2.8l-8.6-.3-4.3-4.4c-4-4.1-4.9-4.5-9.5-4.7-2.9-.1-1-.4 4.5-.7 10.8-.7 12.5-2.4 2.7-2.9l-6.3-.3-9.4-9.4C53.8 12.3 49.3 8 49 8c-.3 0-2.4 1.8-4.5 4z"/><path d="M43.5 50.9c-.3.5.3 1.6 1.3 2.3 1 .7 2.1 2.1 2.5 3 .9 2.4 2.8 2.3 3.4-.2.3-1 1.4-2.2 2.5-2.6 2.2-.7 1.9-2.7-.4-3.2-.9-.2-1.8.6-2.1 1.8-.6 2.3-3.7 1.8-3.7-.6 0-1.6-2.6-1.9-3.5-.5z"/><path d="M43.5 59c-.4.6.7 2.4 2.4 4.1l3.1 3.1 3.1-3.2c2.5-2.4 2.9-3.4 2-4.3-.9-.9-1.7-.6-3.2 1.3l-2 2.5-1.6-2.3c-1.7-2.4-2.8-2.8-3.8-1.2zm-31 9l8 8h-8.9c-6.6 0-8.7.3-8.4 1.2.3.9 4.4 1.5 13.9 1.8 7.4.3 12.1.7 10.4.8l-2.9.2 4.4 4.5c2.4 2.5 4.7 4.5 5 4.5.4 0 1.2-2.9 1.9-6.4 1.4-7 .5-12.2-3-18.6l-2-3.5-13.2-.3L4.5 60l8 8zM67 61.6c-4.4 5.1-6.1 15.9-3.9 23.8l1.1 3.9 7.4-7.4c4.1-4 7.4-7.7 7.4-8.1 0-.5-1.2-.9-2.7-1-1.6-.1 1.1-.4 6-.7 9-.6 12.2-2.4 5.3-2.9l-3.9-.3 4.4-4.5 4.3-4.4-12.3.2c-7 .2-12.6.7-13.1 1.4zm-23.5 6.3c-.3.5.3 1.6 1.3 2.3 1 .7 2.1 2.1 2.5 3 .3 1 1.1 1.8 1.7 1.8.6 0 1.4-.8 1.7-1.8.4-.9 1.5-2.3 2.5-3 2-1.4 1.6-3.2-.8-3.2-.8 0-1.4.7-1.4 1.5s-.7 1.5-1.5 1.5c-.9 0-1.8-.7-2.1-1.5-.7-1.7-3-2-3.9-.6z"/><path d="M43.5 76c-.4.6.7 2.4 2.4 4.1l3.1 3.1 3.1-3.2c2.5-2.4 2.9-3.4 2-4.3-.9-.9-1.7-.6-3.2 1.3l-2 2.5-1.6-2.3c-1.7-2.4-2.8-2.8-3.8-1.2zm0 9c-.3.6.1 1.3 1 1.6.9.4 2.1 1.7 2.6 3 1.1 3.1 2.7 3.1 3.8 0 .5-1.3 1.7-2.6 2.6-3 .9-.3 1.3-1 1-1.6-1-1.5-3.5-1.2-3.5.5 0 .8-.7 1.5-1.5 1.5-.9 0-1.8-.7-2.1-1.5-.7-1.7-3-2-3.9-.5z"/></svg>