<svg width="1920" height="210" viewBox="0 0 1920 210" fill="none" xmlns="http://www.w3.org/2000/svg">
<path fill-rule="evenodd" clip-rule="evenodd" d="M0 0L40 6.06936C80 12.1387 160 23.6705 240 46.7341C320 70.4046 400 105 480 105C560 105 640 70.4046 720 46.7341C800 23.6705 880 12.1387 960 29.1329C1040 46.7341 1120 93.4682 1200 87.3988C1280 81.9364 1360 23.6705 1440 17.6012C1520 12.1387 1600 58.2659 1680 81.9364C1760 105 1840 105 1880 105H1920V210H1880C1840 210 1760 210 1680 210C1600 210 1520 210 1440 210C1360 210 1280 210 1200 210C1120 210 1040 210 960 210C880 210 800 210 720 210C640 210 560 210 480 210C400 210 320 210 240 210C160 210 80 210 40 210H0V0Z" fill="#1d1d1b"/>
</svg>
