<svg width="1920" height="400" viewBox="0 0 1920 400" fill="none" xmlns="http://www.w3.org/2000/svg">
<path fill-rule="evenodd" clip-rule="evenodd" d="M1920 134.261L1840 163.751C1760 194.018 1600 252.999 1440 290.251C1280 327.502 1120 343.024 960 364.754C800 387.26 640 417.527 480 387.26C320 357.769 160 268.521 80 223.509L1.93644e-05 178.496L3.49691e-05 1.52537e-05L80 2.22476e-05C160 2.92414e-05 320 4.3229e-05 480 5.72167e-05C640 7.12043e-05 800 8.5192e-05 960 9.91796e-05C1120 0.000113167 1280 0.000127155 1440 0.000141143C1600 0.00015513 1760 0.000169118 1840 0.000176112L1920 0.000183105L1920 134.261Z" fill="url(#paint0_linear_12_54)"/>
<defs>
<linearGradient id="paint0_linear_12_54" x1="1920" y1="200" x2="1.74845e-05" y2="200" gradientUnits="userSpaceOnUse">
<stop stop-color="#84FAB0"/>
<stop offset="1" stop-color="#8FD3F4"/>
</linearGradient>
</defs>
</svg>
