<?xml version="1.0" standalone="no"?><svg xmlns="http://www.w3.org/2000/svg" viewBox="0 0 1440 320"><path fill="#0099ff" fill-opacity="1" d="M0,288L26.7,277.3C53.3,267,107,245,160,224C213.3,203,267,181,320,170.7C373.3,160,427,160,480,181.3C533.3,203,587,245,640,234.7C693.3,224,747,160,800,154.7C853.3,149,907,203,960,224C1013.3,245,1067,235,1120,202.7C1173.3,171,1227,117,1280,122.7C1333.3,128,1387,192,1413,224L1440,256L1440,320L1413.3,320C1386.7,320,1333,320,1280,320C1226.7,320,1173,320,1120,320C1066.7,320,1013,320,960,320C906.7,320,853,320,800,320C746.7,320,693,320,640,320C586.7,320,533,320,480,320C426.7,320,373,320,320,320C266.7,320,213,320,160,320C106.7,320,53,320,27,320L0,320Z"></path></svg>