<?xml version="1.0" standalone="no"?>
<!DOCTYPE svg PUBLIC "-//W3C//DTD SVG 20010904//EN"
 "http://www.w3.org/TR/2001/REC-SVG-20010904/DTD/svg10.dtd">
<svg version="1.0" xmlns="http://www.w3.org/2000/svg"
 width="100.000000pt" height="100.000000pt" viewBox="0 0 100.000000 100.000000"
 preserveAspectRatio="xMidYMid meet">
<metadata>
Created by potrace 1.14, written by Peter Selinger 2001-2017
</metadata>
<g transform="translate(0.000000,100.000000) scale(0.100000,-0.100000)"
fill="#000000" stroke="none">
<path d="M445 880 c-38 -39 -41 -40 -108 -40 -50 0 -68 -3 -65 -12 3 -9 36
-15 94 -19 49 -3 69 -6 44 -7 -41 -2 -51 -8 -105 -62 l-59 -59 -90 -3 c-60 -2
-91 -7 -94 -15 -3 -10 27 -13 125 -15 70 -1 103 -3 72 -5 -54 -4 -57 -5 -133
-82 l-78 -78 34 -7 c42 -8 137 8 179 29 19 10 46 15 68 12 36 -4 89 15 103 37
11 16 10 64 -2 71 -16 10 -12 98 6 123 21 31 87 31 108 0 18 -26 21 -109 5
-125 -7 -7 -9 -25 -5 -45 7 -41 53 -68 102 -61 18 3 52 -4 80 -15 56 -23 141
-36 179 -26 l27 7 -38 38 c-35 36 -43 39 -99 41 -33 1 -5 5 63 8 143 6 169 24
41 28 l-86 3 -43 44 c-40 41 -49 45 -95 47 -29 1 -10 4 45 7 108 7 125 24 27
29 l-63 3 -94 94 c-52 52 -97 95 -100 95 -3 0 -24 -18 -45 -40z"/>
<path d="M435 491 c-3 -5 3 -16 13 -23 10 -7 21 -21 25 -30 9 -24 28 -23 34 2
3 10 14 22 25 26 22 7 19 27 -4 32 -9 2 -18 -6 -21 -18 -6 -23 -37 -18 -37 6
0 16 -26 19 -35 5z"/>
<path d="M435 410 c-4 -6 7 -24 24 -41 l31 -31 31 32 c25 24 29 34 20 43 -9 9
-17 6 -32 -13 l-20 -25 -16 23 c-17 24 -28 28 -38 12z"/>
<path d="M125 320 l80 -80 -89 0 c-66 0 -87 -3 -84 -12 3 -9 44 -15 139 -18
74 -3 121 -7 104 -8 l-29 -2 44 -45 c24 -25 47 -45 50 -45 4 0 12 29 19 64 14
70 5 122 -30 186 l-20 35 -132 3 -132 2 80 -80z"/>
<path d="M670 384 c-44 -51 -61 -159 -39 -238 l11 -39 74 74 c41 40 74 77 74
81 0 5 -12 9 -27 10 -16 1 11 4 60 7 90 6 122 24 53 29 l-39 3 44 45 43 44
-123 -2 c-70 -2 -126 -7 -131 -14z"/>
<path d="M435 321 c-3 -5 3 -16 13 -23 10 -7 21 -21 25 -30 3 -10 11 -18 17
-18 6 0 14 8 17 18 4 9 15 23 25 30 20 14 16 32 -8 32 -8 0 -14 -7 -14 -15 0
-8 -7 -15 -15 -15 -9 0 -18 7 -21 15 -7 17 -30 20 -39 6z"/>
<path d="M435 240 c-4 -6 7 -24 24 -41 l31 -31 31 32 c25 24 29 34 20 43 -9 9
-17 6 -32 -13 l-20 -25 -16 23 c-17 24 -28 28 -38 12z"/>
<path d="M435 150 c-3 -6 1 -13 10 -16 9 -4 21 -17 26 -30 11 -31 27 -31 38 0
5 13 17 26 26 30 9 3 13 10 10 16 -10 15 -35 12 -35 -5 0 -8 -7 -15 -15 -15
-9 0 -18 7 -21 15 -7 17 -30 20 -39 5z"/>
</g>
</svg>
